<?xml version="1.0" encoding="UTF-8"?>
<svg id="Capa_1" data-name="Capa 1" xmlns="http://www.w3.org/2000/svg" viewBox="0 0 130 40">
  <defs>
    <style>
      .cls-1 {
        fill: #ffe6d9;
      }
    </style>
  </defs>
  <path class="cls-1" d="m49.8,24.76c0-2.98-.77-4.78-2.39-4.78-1.8,0-2.17,3.13-.88,5.22-.33,1.18-1.95,2.1-3.42,2.1-1.95,0-3.2-1.25-3.2-3.2,0-2.91,3.71-5.04,7.83-5.04,5.55,0,8.2,2.8,8.2,8.28v7.06c0,2.02.44,2.83,1.66,3.05v.37h-4.74c-1.25,0-2.17-.55-2.65-1.51-.59,1.32-1.88,1.88-4.08,1.88-4.52,0-6.95-1.4-6.95-4.45,0-6.11,8.9-4.89,10.63-8.97Zm-1.99,12.51c1.07,0,1.99-1.51,1.99-3.2v-7.94c-1.25,3.09-4.01,2.43-4.01,7.61,0,2.21.99,3.53,2.02,3.53Z"/>
  <path class="cls-1" d="m76.43,34.39c0,1.99.4,2.83,1.66,3.05v.37h-4.74c-1.91,0-3.05-1.29-3.05-3.42v.15c-1.03,1.91-3.31,3.27-5.81,3.27-4.34,0-6.77-2.8-6.77-7.8v-5.48c0-1.95-.37-2.68-1.66-2.91v-.37c2.65,0,6.62-1.18,7.43-2.21h.37v10.96c0,3.83.92,5.77,2.72,5.77,1.51,0,2.91-1.03,3.71-3.05v-8.2c0-1.95-.37-2.68-1.66-2.91v-.37c2.65,0,6.62-1.18,7.43-2.21h.37v15.34Z"/>
  <path class="cls-1" d="m78.57,12.45v-.37c2.65,0,6.62-1.18,7.43-2.21h.37v12.32c1.14-1.91,3.68-3.27,6.18-3.27,4.34,0,6.77,2.8,6.77,7.8v7.83c0,1.99.4,2.68,1.66,2.91v.37c-1.29,0-2.94-.29-4.74-.29s-3.42.29-4.71.29v-.37c1.29-.22,1.66-.96,1.66-2.91v-7.83c0-3.83-.92-5.77-2.72-5.77-1.51,0-3.13,1.03-4.08,3.05v10.56c0,1.99.4,2.68,1.66,2.91v.37c-1.29,0-2.94-.29-4.74-.29s-3.42.29-4.71.29v-.37c1.29-.22,1.66-.96,1.66-2.91V15.36c0-1.95-.37-2.68-1.66-2.91Z"/>
  <path class="cls-1" d="m111.75,24.77c0-2.98-.77-4.78-2.39-4.78-1.8,0-2.17,3.13-.88,5.22-.33,1.18-1.95,2.1-3.42,2.1-1.95,0-3.2-1.25-3.2-3.2,0-2.91,3.71-5.04,7.83-5.04,5.55,0,8.2,2.8,8.2,8.28v7.06c0,2.02.44,2.83,1.66,3.05v.37h-4.74c-1.25,0-2.17-.55-2.65-1.51-.59,1.32-1.88,1.88-4.08,1.88-4.52,0-6.95-1.4-6.95-4.45,0-6.11,8.9-4.89,10.63-8.97Zm-1.99,12.51c1.07,0,1.99-1.51,1.99-3.2v-7.94c-1.25,3.09-4.01,2.43-4.01,7.61,0,2.21.99,3.53,2.02,3.53Z"/>
  <path class="cls-1" d="m37.99,30.02l-3.08-1.83c-.4-.24-.92-.12-1.19.26-.38.55-.83,1.07-1.34,1.55-3.87,3.64-10.02,3.52-13.75-.27-3.23-3.28-3.7-8.27-1.38-12.04.16-.27.34-.53.53-.78.27.35.57.68.89,1,2.93,2.93,7.08,3.9,10.82,2.92h.01c.63-.17,1.24-.39,1.84-.66.53-.29,1.04-.66,1.49-1.11s.83-.97,1.12-1.51c.15-.27.27-.55.38-.84.67-1.81.49-3.87-.52-5.56-.27-.44-.59-.87-.98-1.25-.58-.58-1.24-1.02-1.94-1.34-.48-.18-.96-.33-1.45-.45-.07-.02-.14-.03-.2-.05-1.3-.31-2.64-.46-3.97-.42-2,.05-3.99.49-5.85,1.33.21-1.52.89-2.99,2.07-4.16h0c.26-.26.26-.69,0-.95l-1.86-1.86c-.26-.26-.67-.26-.93,0,0,0-.01.01-.02.02-2.6,2.6-3.66,6.14-3.18,9.52-.2.18-.39.37-.59.56-.88.88-1.63,1.85-2.25,2.87-3.53,5.82-2.8,13.5,2.19,18.55,5.73,5.8,15.1,6.03,21.09.5.9-.83,1.68-1.75,2.34-2.73.28-.42.15-1-.29-1.26Zm-16.51-14.92c-.26-.26-.5-.54-.71-.82.35-.2.7-.37,1.06-.53.01,0,.03-.01.04-.02,2.44-1.01,5.2-1.01,7.63.02,1.27.54,1.25,2.35-.02,2.9,0,0-.02,0-.03.01-.07.03-.14.07-.21.11-.25.14-.52.22-.79.23t0,0c-2.25.58-4.72.06-6.58-1.54-.13-.11-.26-.23-.39-.36Z"/>
</svg>